<svg width="16" height="16" viewBox="0 0 16 16" fill="none" xmlns="http://www.w3.org/2000/svg">
<path d="M8 15C6.14348 15 4.36301 14.2625 3.05025 12.9497C1.7375 11.637 1 9.85652 1 8C1 6.14348 1.7375 4.36301 3.05025 3.05025C4.36301 1.7375 6.14348 1 8 1C9.85652 1 11.637 1.7375 12.9497 3.05025C14.2625 4.36301 15 6.14348 15 8C15 9.85652 14.2625 11.637 12.9497 12.9497C11.637 14.2625 9.85652 15 8 15ZM8 16C10.1217 16 12.1566 15.1571 13.6569 13.6569C15.1571 12.1566 16 10.1217 16 8C16 5.87827 15.1571 3.84344 13.6569 2.34315C12.1566 0.842855 10.1217 0 8 0C5.87827 0 3.84344 0.842855 2.34315 2.34315C0.842855 3.84344 0 5.87827 0 8C0 10.1217 0.842855 12.1566 2.34315 13.6569C3.84344 15.1571 5.87827 16 8 16Z" fill="#4A21EF"/>
<path d="M8 13.5C6.54131 13.5 5.14236 12.9205 4.11091 11.8891C3.07946 10.8576 2.5 9.45869 2.5 8C2.5 6.54131 3.07946 5.14236 4.11091 4.11091C5.14236 3.07946 6.54131 2.5 8 2.5C9.45869 2.5 10.8576 3.07946 11.8891 4.11091C12.9205 5.14236 13.5 6.54131 13.5 8C13.5 9.45869 12.9205 10.8576 11.8891 11.8891C10.8576 12.9205 9.45869 13.5 8 13.5ZM8 14C8.78793 14 9.56815 13.8448 10.2961 13.5433C11.0241 13.2417 11.6855 12.7998 12.2426 12.2426C12.7998 11.6855 13.2417 11.0241 13.5433 10.2961C13.8448 9.56815 14 8.78793 14 8C14 7.21207 13.8448 6.43185 13.5433 5.7039C13.2417 4.97595 12.7998 4.31451 12.2426 3.75736C11.6855 3.20021 11.0241 2.75825 10.2961 2.45672C9.56815 2.15519 8.78793 2 8 2C6.4087 2 4.88258 2.63214 3.75736 3.75736C2.63214 4.88258 2 6.4087 2 8C2 9.5913 2.63214 11.1174 3.75736 12.2426C4.88258 13.3679 6.4087 14 8 14Z" fill="#4A21EF"/>
<g clip-path="url(#clip0_21_230)">
<path d="M10.25 6.5C10.25 7.09674 10.0129 7.66903 9.59099 8.09099C9.16903 8.51295 8.59674 8.75 8 8.75C7.40326 8.75 6.83097 8.51295 6.40901 8.09099C5.98705 7.66903 5.75 7.09674 5.75 6.5C5.75 5.90326 5.98705 5.33097 6.40901 4.90901C6.83097 4.48705 7.40326 4.25 8 4.25C8.59674 4.25 9.16903 4.48705 9.59099 4.90901C10.0129 5.33097 10.25 5.90326 10.25 6.5Z" fill="#4A21EF"/>
<path fill-rule="evenodd" clip-rule="evenodd" d="M2 8C2 6.4087 2.63214 4.88258 3.75736 3.75736C4.88258 2.63214 6.4087 2 8 2C9.5913 2 11.1174 2.63214 12.2426 3.75736C13.3679 4.88258 14 6.4087 14 8C14 9.5913 13.3679 11.1174 12.2426 12.2426C11.1174 13.3679 9.5913 14 8 14C6.4087 14 4.88258 13.3679 3.75736 12.2426C2.63214 11.1174 2 9.5913 2 8ZM8 2.75C7.01133 2.75005 6.04277 3.02927 5.2058 3.55552C4.36883 4.08177 3.69746 4.83366 3.26897 5.72465C2.84048 6.61563 2.67229 7.6095 2.78375 8.59187C2.89521 9.57423 3.28179 10.5052 3.899 11.2775C4.4315 10.4195 5.60375 9.5 8 9.5C10.3962 9.5 11.5678 10.4187 12.101 11.2775C12.7182 10.5052 13.1048 9.57423 13.2163 8.59187C13.3277 7.6095 13.1595 6.61563 12.731 5.72465C12.3025 4.83366 11.6312 4.08177 10.7942 3.55552C9.95723 3.02927 8.98867 2.75005 8 2.75Z" fill="#4A21EF"/>
</g>
<defs>
<clipPath id="clip0_21_230">
<rect width="12" height="12" fill="white" transform="translate(2 2)"/>
</clipPath>
</defs>
</svg>
